<svg width="120" height="84" viewBox="0 0 120 84" fill="none" xmlns="http://www.w3.org/2000/svg">
<rect x="36.1" y="0.1" width="11.8" height="11.8" fill="white" stroke="black" stroke-width="0.2"/>
<rect x="36.1" y="72.1" width="11.8" height="11.8" fill="white" stroke="black" stroke-width="0.2"/>
<rect x="24.1" y="0.1" width="11.8" height="11.8" fill="white" stroke="black" stroke-width="0.2"/>
<rect x="24.1" y="72.1" width="11.8" height="11.8" fill="white" stroke="black" stroke-width="0.2"/>
<rect x="36.1" y="12.1" width="11.8" height="11.8" fill="white" stroke="black" stroke-width="0.2"/>
<rect x="36.1" y="24.1" width="11.8" height="11.8" fill="black" stroke="black" stroke-width="0.2"/>
<rect x="36.1" y="36.1" width="11.8" height="11.8" fill="white" stroke="black" stroke-width="0.2"/>
<rect x="36.1" y="48.1" width="11.8" height="11.8" fill="white" stroke="black" stroke-width="0.2"/>
<rect x="36.1" y="60.1" width="11.8" height="11.8" fill="white" stroke="black" stroke-width="0.2"/>
<rect x="24.1" y="12.1" width="11.8" height="11.8" fill="white" stroke="black" stroke-width="0.2"/>
<rect x="12.1" y="12.1" width="11.8" height="11.8" fill="white" stroke="black" stroke-width="0.2"/>
<rect x="12.1" y="0.1" width="11.8" height="11.8" fill="white" stroke="black" stroke-width="0.2"/>
<rect x="0.1" y="12.1" width="11.8" height="11.8" fill="white" stroke="black" stroke-width="0.2"/>
<rect x="24.1" y="24.1" width="11.8" height="11.8" fill="white" stroke="black" stroke-width="0.2"/>
<rect x="12.1" y="24.1" width="11.8" height="11.8" fill="white" stroke="black" stroke-width="0.2"/>
<rect x="0.1" y="24.1" width="11.8" height="11.8" fill="white" stroke="black" stroke-width="0.2"/>
<rect x="24.1" y="36.1" width="11.8" height="11.8" fill="white" stroke="black" stroke-width="0.2"/>
<rect x="12.1" y="36.1" width="11.8" height="11.8" fill="white" stroke="black" stroke-width="0.2"/>
<rect x="0.1" y="36.1" width="11.8" height="11.8" fill="white" stroke="black" stroke-width="0.2"/>
<rect x="24.1" y="48.1" width="11.8" height="11.8" fill="white" stroke="black" stroke-width="0.2"/>
<rect x="24.1" y="60.1" width="11.8" height="11.8" fill="white" stroke="black" stroke-width="0.2"/>
<rect x="12.1" y="48.1" width="11.8" height="11.8" fill="white" stroke="black" stroke-width="0.2"/>
<rect x="0.1" y="48.1" width="11.8" height="11.8" fill="white" stroke="black" stroke-width="0.2"/>
<rect x="12.1" y="60.1" width="11.8" height="11.8" fill="white" stroke="black" stroke-width="0.2"/>
<rect x="12.1" y="72.1" width="11.8" height="11.8" fill="white" stroke="black" stroke-width="0.2"/>
<rect x="0.1" y="60.1" width="11.8" height="11.8" fill="white" stroke="black" stroke-width="0.2"/>
<rect x="48.1" y="0.1" width="11.8" height="11.8" fill="white" stroke="black" stroke-width="0.2"/>
<rect x="48.1" y="72.1" width="11.8" height="11.8" fill="white" stroke="black" stroke-width="0.2"/>
<rect x="48.1" y="12.1" width="11.8" height="11.8" fill="white" stroke="black" stroke-width="0.2"/>
<rect x="48.1" y="24.1" width="11.8" height="11.8" fill="white" stroke="black" stroke-width="0.2"/>
<rect x="48.1" y="36.1" width="11.8" height="11.8" fill="white" stroke="black" stroke-width="0.2"/>
<rect x="48.1" y="48.1" width="11.8" height="11.8" fill="white" stroke="black" stroke-width="0.2"/>
<rect x="48.1" y="60.1" width="11.8" height="11.8" fill="white" stroke="black" stroke-width="0.2"/>
<rect x="60.1" y="0.1" width="11.8" height="11.8" fill="white" stroke="black" stroke-width="0.2"/>
<rect x="60.1" y="72.1" width="11.8" height="11.8" fill="white" stroke="black" stroke-width="0.2"/>
<rect x="60.1" y="12.1" width="11.8" height="11.8" fill="white" stroke="black" stroke-width="0.2"/>
<rect x="60.1" y="24.1" width="11.8" height="11.8" fill="white" stroke="black" stroke-width="0.2"/>
<rect x="60.1" y="36.1" width="11.8" height="11.8" fill="white" stroke="black" stroke-width="0.2"/>
<rect x="60.1" y="48.1" width="11.8" height="11.8" fill="#FFB700" stroke="black" stroke-width="0.2"/>
<rect x="60.1" y="60.1" width="11.8" height="11.8" fill="white" stroke="black" stroke-width="0.2"/>
<rect x="72.1" y="12.1" width="11.8" height="11.8" fill="white" stroke="black" stroke-width="0.2"/>
<rect x="72.1" y="24.1" width="11.8" height="11.8" fill="#FFB700" stroke="black" stroke-width="0.2"/>
<rect x="72.1" y="36.1" width="11.8" height="11.8" fill="#FFB700" stroke="black" stroke-width="0.2"/>
<rect x="84.1" y="36.1" width="11.8" height="11.8" fill="#FFB700" stroke="black" stroke-width="0.2"/>
<rect x="96.1" y="36.1" width="11.8" height="11.8" fill="#FFB700" stroke="black" stroke-width="0.2"/>
<rect x="96.1" y="24.1" width="11.8" height="11.8" fill="#FFB700" stroke="black" stroke-width="0.2"/>
<rect x="108.1" y="24.1" width="11.8" height="11.8" fill="#FFB700" stroke="black" stroke-width="0.2"/>
<rect x="72.1" y="48.1" width="11.8" height="11.8" fill="#FFB700" stroke="black" stroke-width="0.2"/>
<rect x="84.1" y="48.1" width="11.8" height="11.8" fill="#FFB700" stroke="black" stroke-width="0.2"/>
<rect x="84.1" y="60.1" width="11.8" height="11.8" fill="#FFB700" stroke="black" stroke-width="0.2"/>
<rect x="96.1" y="60.1" width="11.8" height="11.8" fill="#FFB700" stroke="black" stroke-width="0.2"/>
<rect x="108.1" y="60.1" width="11.8" height="11.8" fill="#FFB700" stroke="black" stroke-width="0.2"/>
<rect x="72.1" y="60.1" width="11.8" height="11.8" fill="white" stroke="black" stroke-width="0.2"/>
</svg>
